<svg width="20" height="20" viewBox="0 0 20 20" fill="none" xmlns="http://www.w3.org/2000/svg">
<path d="M9.96665 0C5.63332 0 1.93332 2.8 0.56665 6.66667H19.4333C18.0333 2.8 14.3333 0 9.96665 0Z" fill="#ECF1F0"/>
<path d="M9.96665 20C14.3333 20 18.0333 17.2 19.4 13.3333H0.56665C1.93332 17.2333 5.63332 20 9.96665 20Z" fill="#ED4C5C"/>
<path d="M0.566667 6.66669C0.2 7.70002 0 8.83335 0 10C0 11.1667 0.2 12.3 0.566667 13.3334H19.4333C19.8 12.3 20 11.1667 20 10C20 8.83335 19.8 7.70002 19.4333 6.66669H0.566667Z" fill="#428BC1"/>
</svg>
