<svg width="34" height="34" viewBox="0 0 34 34" fill="none" xmlns="http://www.w3.org/2000/svg">
<rect width="34" height="34" rx="17" fill="#0FAE96"/>
<path d="M21.2356 19.6665C20.9362 19.6676 20.6402 19.7292 20.3653 19.8476C20.0903 19.966 19.8421 20.1387 19.6356 20.3553L14.2178 17.6442C14.3511 17.2401 14.3511 16.8039 14.2178 16.3998L19.6445 13.6398C20.0332 14.0494 20.5603 14.2999 21.1234 14.3425C21.6864 14.3851 22.2453 14.2168 22.6912 13.8704C23.1371 13.524 23.4383 13.0241 23.5362 12.468C23.6341 11.9118 23.5218 11.3392 23.221 10.8613C22.9202 10.3834 22.4524 10.0344 21.9086 9.88212C21.3649 9.72987 20.7839 9.78525 20.2787 10.0375C19.7735 10.2897 19.3801 10.7208 19.175 11.2469C18.9699 11.773 18.9677 12.3566 19.1689 12.8842L13.7956 15.6176C13.5054 15.2626 13.1125 15.0062 12.6708 14.8833C12.2292 14.7604 11.7603 14.7772 11.3285 14.9312C10.8967 15.0853 10.5231 15.3691 10.259 15.7438C9.99482 16.1185 9.85303 16.5658 9.85303 17.0242C9.85303 17.4827 9.99482 17.9299 10.259 18.3046C10.5231 18.6793 10.8967 18.9632 11.3285 19.1172C11.7603 19.2713 12.2292 19.288 12.6708 19.1652C13.1125 19.0423 13.5054 18.7858 13.7956 18.4309L19.1556 21.1287C19.065 21.3719 19.0184 21.6292 19.0178 21.8887C19.0178 22.3282 19.1481 22.7578 19.3923 23.1233C19.6365 23.4887 19.9836 23.7735 20.3896 23.9417C20.7957 24.1099 21.2425 24.1539 21.6736 24.0682C22.1046 23.9825 22.5006 23.7708 22.8114 23.46C23.1222 23.1492 23.3338 22.7533 23.4196 22.3222C23.5053 21.8911 23.4613 21.4443 23.2931 21.0383C23.1249 20.6322 22.8401 20.2851 22.4746 20.041C22.1092 19.7968 21.6795 19.6665 21.24 19.6665H21.2356Z" fill="#ECF1F0"/>
</svg>
