<svg width="12" height="20" viewBox="0 0 12 20" fill="none" xmlns="http://www.w3.org/2000/svg">
<path d="M11.7166 9.37695L1.53338 0.237683C1.36346 0.0851124 1.13772 8.20079e-07 0.902977 8.37802e-07C0.66823 8.55525e-07 0.442492 0.0851125 0.27258 0.237683L0.261616 0.24801C0.17896 0.321973 0.113144 0.411001 0.0681687 0.509679C0.0231934 0.608358 5.39524e-08 0.714623 6.206e-08 0.82201C7.01675e-08 0.929398 0.0231934 1.03566 0.0681687 1.13434C0.113144 1.23302 0.17896 1.32205 0.261616 1.39601L9.85098 10.0017L0.261617 18.604C0.178961 18.678 0.113145 18.767 0.0681701 18.8657C0.0231948 18.9643 1.43979e-06 19.0706 1.4479e-06 19.178C1.45601e-06 19.2854 0.0231948 19.3916 0.0681701 19.4903C0.113145 19.589 0.178961 19.678 0.261617 19.752L0.272582 19.7623C0.442493 19.9149 0.668232 20 0.902978 20C1.13773 20 1.36346 19.9149 1.53338 19.7623L11.7166 10.6231C11.8062 10.5427 11.8774 10.446 11.9262 10.3389C11.9749 10.2318 12 10.1165 12 10C12 9.88348 11.9749 9.76818 11.9262 9.66108C11.8774 9.55398 11.8062 9.45732 11.7166 9.37695Z" fill="#ECF1F0"/>
</svg>
